<svg xmlns="http://www.w3.org/2000/svg" viewBox="0 0 10 10">
  <path d="M4.5 3 L5.5 3 L5.5 6 L4.5 6 Z" />
  <path d="M3.5 3 L4.5 3 L4.5 4 L3.5 4 Z" />
  <path d="M3 4 L4 4 L4 5 L3 5 Z" />
  <path d="M5.5 3 L6.5 3 L6.5 4 L5.5 4 Z" />
  <path d="M6 4 L7 4 L7 5 L6 5 Z" />
  <path d="M4.5 6 L5 6 L5 7.5 L4.5 7.5 Z" />
  <path d="M4.5 7.5 L5 7.5 L5 9 L4.5 9 Z" />
  <path d="M5 6 L5.5 6 L5.5 7.5 L5 7.5 Z" />
  <path d="M5 7.5 L5.5 7.5 L5.5 9 L5 9 Z" />
  <path d="M5 2 m-1 0 a1 1 0 1 0 2 0 a1 1 0 1 0 -2 0" />
</svg>
